# xmcd
#
# Track frame offsets:
#	150
#	13815
#	37918
#	56548
#	77625
#	96763
#	110873
#	150533
#	171183
#	188048
#	207698
#	221480
#	232448
#	251478
#	269245
#	280033
#
# Disc length: 3873
#
# Revision: 1
# Processed by: cddbd v1.5.1PL0 Copyright (c) Steve Scherf et al.
# Submitted via: CDex 1.50beta10
# Normalized: r0:TDELIM( - )
#
DISCID=ed0f1f10
DTITLE=Sheffield Lab - Heritage
DYEAR=2000
DGENRE=Jazz
TTITLE0=L'Daddy - James Newton Howard and Friends
TTITLE1=Roads Less Travelled - Steps
TTITLE2=The Higher Your Rise - Drums and Tracks
TTITLE3=What Kind of World - Speaking in Melodies
TTITLE4=Amanda - Amanda McBroom
TTITLE5=The Rose - Amanda McBroom
TTITLE6=Matter of Time - Michael Allen Harrison and Friends
TTITLE7=Time Will Bring You Love - The Usual Suspect
TTITLE8=Rusty Autos - Acoustic Storm
TTITLE9=Sun Song - Dave Grusin
TTITLE10=Take The "A" Train - The Best of Harry James
TTITLE11=Keep Your Lamps - Earth Chants The Madrigal of SBHS
TTITLE12=Gavotte - Leinsdorf and Sessions
TTITLE13=Allegro Moderato - Strauss and Dvorak
TTITLE14=Putting on The Ritz - Say it with Music Margie Gibson
TTITLE15=Imaging Test Track - MDMS
EXTD=YEAR: 2000
EXTT0=
EXTT1=
EXTT2=
EXTT3=
EXTT4=
EXTT5=
EXTT6=
EXTT7=
EXTT8=
EXTT9=
EXTT10=
EXTT11=
EXTT12=
EXTT13=
EXTT14=
EXTT15=
PLAYORDER=
